<svg width="60" height="28" viewBox="0 0 60 28" fill="none" xmlns="http://www.w3.org/2000/svg">
<path d="M12.912 19.42C11.9307 19.42 11.0987 19.1747 10.416 18.684C9.75467 18.1933 9.424 17.404 9.424 16.316C9.424 15.612 9.616 15.0253 10 14.556C10.384 14.0867 10.96 13.724 11.728 13.468C12.496 13.1907 13.4453 13.0307 14.576 12.988L16.112 12.924V12.476C16.112 11.7507 15.952 11.2173 15.632 10.876C15.312 10.5133 14.8427 10.332 14.224 10.332C13.8187 10.332 13.36 10.4067 12.848 10.556C12.3573 10.684 11.792 10.8973 11.152 11.196L10.576 9.692C11.1947 9.39333 11.8027 9.16933 12.4 9.02C13.0187 8.84933 13.6587 8.764 14.32 8.764C15.6427 8.764 16.624 9.04133 17.264 9.596C17.904 10.1507 18.224 11.036 18.224 12.252V19.26H16.592L16.176 16.892L16.624 17.148C16.112 17.8733 15.5787 18.4387 15.024 18.844C14.4907 19.228 13.7867 19.42 12.912 19.42ZM13.264 17.852C13.8187 17.852 14.3093 17.756 14.736 17.564C15.1627 17.372 15.4933 17.0733 15.728 16.668C15.984 16.2413 16.112 15.7187 16.112 15.1V14.3L14.8 14.364C13.5627 14.428 12.7093 14.62 12.24 14.94C11.792 15.26 11.568 15.7293 11.568 16.348C11.568 16.8387 11.728 17.212 12.048 17.468C12.368 17.724 12.7733 17.852 13.264 17.852ZM14 27.26C12.1867 27.26 10.48 26.9187 8.88 26.236C7.28 25.5533 5.872 24.6147 4.656 23.42C3.46133 22.204 2.52267 20.796 1.84 19.196C1.15733 17.596 0.816 15.8893 0.816 14.076C0.816 12.2413 1.15733 10.5347 1.84 8.956C2.52267 7.356 3.46133 5.95867 4.656 4.764C5.872 3.548 7.28 2.59867 8.88 1.916C10.48 1.23333 12.1867 0.891998 14 0.891998C15.8347 0.891998 17.5413 1.23333 19.12 1.916C20.72 2.59867 22.1173 3.548 23.312 4.764C24.528 5.95867 25.4773 7.356 26.16 8.956C26.8427 10.5347 27.184 12.2413 27.184 14.076C27.184 15.8893 26.8427 17.596 26.16 19.196C25.4773 20.796 24.528 22.204 23.312 23.42C22.1173 24.6147 20.72 25.5533 19.12 26.236C17.5413 26.9187 15.8347 27.26 14 27.26ZM14 25.468C15.5787 25.468 17.0507 25.18 18.416 24.604C19.8027 24.0067 21.0187 23.1853 22.064 22.14C23.1093 21.0947 23.92 19.8893 24.496 18.524C25.0933 17.1373 25.392 15.6547 25.392 14.076C25.392 12.4973 25.0933 11.0253 24.496 9.66C23.92 8.27333 23.1093 7.05733 22.064 6.012C21.0187 4.96667 19.8027 4.156 18.416 3.58C17.0507 2.98266 15.5787 2.684 14 2.684C12.4213 2.684 10.9387 2.98266 9.552 3.58C8.18667 4.156 6.98133 4.96667 5.936 6.012C4.89067 7.05733 4.06933 8.27333 3.472 9.66C2.896 11.0253 2.608 12.4973 2.608 14.076C2.608 15.6547 2.896 17.1373 3.472 18.524C4.06933 19.8893 4.89067 21.0947 5.936 22.14C6.98133 23.1853 8.18667 24.0067 9.552 24.604C10.9387 25.18 12.4213 25.468 14 25.468ZM46.608 21.148C47.4187 21.148 48.2293 21.084 49.04 20.956C49.8507 20.828 50.6613 20.6467 51.472 20.412V13.436H46.128V15.228H49.264V19.164C48.9227 19.2493 48.5387 19.3133 48.112 19.356C47.6853 19.3987 47.2053 19.42 46.672 19.42C44.9867 19.42 43.7173 18.9613 42.864 18.044C42.0107 17.1267 41.584 15.7507 41.584 13.916C41.584 12.252 42.0213 10.94 42.896 9.98C43.792 8.99867 45.072 8.508 46.736 8.508C47.312 8.508 47.92 8.58267 48.56 8.732C49.2 8.86 49.8507 9.07333 50.512 9.372L51.28 7.612C50.6187 7.33467 49.904 7.132 49.136 7.004C48.3893 6.85467 47.6107 6.78 46.8 6.78C44.4107 6.78 42.5547 7.42 41.232 8.7C39.9093 9.98 39.248 11.7187 39.248 13.916C39.248 15.4093 39.5147 16.7 40.048 17.788C40.6027 18.8547 41.424 19.6867 42.512 20.284C43.6213 20.86 44.9867 21.148 46.608 21.148ZM46 27.26C44.1867 27.26 42.48 26.9187 40.88 26.236C39.28 25.5533 37.872 24.6147 36.656 23.42C35.4613 22.204 34.5227 20.796 33.84 19.196C33.1573 17.596 32.816 15.8893 32.816 14.076C32.816 12.2627 33.1573 10.5667 33.84 8.988C34.5227 7.388 35.4613 5.98 36.656 4.764C37.872 3.548 39.28 2.59867 40.88 1.916C42.48 1.23333 44.1867 0.891998 46 0.891998C47.8347 0.891998 49.5413 1.23333 51.12 1.916C52.72 2.59867 54.1173 3.548 55.312 4.764C56.528 5.98 57.4773 7.388 58.16 8.988C58.8427 10.5667 59.184 12.2627 59.184 14.076C59.184 15.8893 58.8427 17.596 58.16 19.196C57.4773 20.796 56.528 22.204 55.312 23.42C54.1173 24.6147 52.72 25.5533 51.12 26.236C49.5413 26.9187 47.8347 27.26 46 27.26Z" fill="black"/>
</svg>
