<svg width="32" height="32" viewBox="0 0 32 32" fill="none" xmlns="http://www.w3.org/2000/svg">
<mask id="mask0_64_92" style="mask-type:alpha" maskUnits="userSpaceOnUse" x="0" y="0" width="32" height="32">
<rect width="32" height="32" fill="#D9D9D9"/>
</mask>
<g mask="url(#mask0_64_92)">
<path d="M14.0666 24.2666L20.9666 16H15.6332L16.5999 8.43331L10.4332 17.3333H15.0666L14.0666 24.2666ZM12.7692 19.3333H8.71289C8.26489 19.3333 7.93667 19.135 7.72823 18.7383C7.51956 18.3419 7.54523 17.9599 7.80523 17.5923L16.5409 4.98998C16.7204 4.73864 16.9496 4.56675 17.2282 4.47431C17.5067 4.38209 17.7963 4.38987 18.0972 4.49764C18.3981 4.6052 18.6182 4.78931 18.7576 5.04998C18.8969 5.31064 18.9486 5.59142 18.9126 5.89231L17.9102 14H22.8846C23.3597 14 23.6947 14.2129 23.8896 14.6386C24.0844 15.0642 24.0272 15.4608 23.7179 15.8283L14.0589 27.3973C13.8658 27.6264 13.6299 27.7748 13.3512 27.8423C13.0726 27.9096 12.8008 27.8826 12.5359 27.7613C12.271 27.64 12.0654 27.4545 11.9192 27.205C11.773 26.9554 11.7179 26.6802 11.7539 26.3793L12.7692 19.3333Z" fill="#1C1B1F"/>
</g>
</svg>
