<svg width="32" height="32" viewBox="0 0 32 32" fill="none" xmlns="http://www.w3.org/2000/svg">
<mask id="mask0_64_74" style="mask-type:alpha" maskUnits="userSpaceOnUse" x="0" y="0" width="32" height="32">
<rect width="32" height="32" fill="#D9D9D9"/>
</mask>
<g mask="url(#mask0_64_74)">
<path d="M5.95895 16.0207L11.3693 21.4307C11.5537 21.6154 11.6482 21.8475 11.6526 22.127C11.6568 22.4064 11.5624 22.6427 11.3693 22.836C11.1759 23.0291 10.9417 23.1257 10.6666 23.1257C10.3915 23.1257 10.1573 23.0291 9.96395 22.836L3.97162 16.8437C3.84695 16.7188 3.75895 16.5871 3.70762 16.4487C3.65628 16.3102 3.63062 16.1607 3.63062 16C3.63062 15.8394 3.65628 15.6898 3.70762 15.5514C3.75895 15.4129 3.84695 15.2812 3.97162 15.1564L9.96395 9.16402C10.1624 8.9658 10.3979 8.86458 10.6706 8.86036C10.9431 8.85613 11.1827 8.95736 11.3896 9.16402C11.5965 9.37091 11.6999 9.60858 11.6999 9.87702C11.6999 10.1452 11.5965 10.3828 11.3896 10.5897L5.95895 16.0207ZM26.0409 15.9794L20.6306 10.5694C20.4462 10.3847 20.3517 10.1526 20.3473 9.87302C20.3431 9.59369 20.4375 9.35736 20.6306 9.16402C20.8239 8.97091 21.0582 8.87436 21.3333 8.87436C21.6084 8.87436 21.8426 8.97091 22.0359 9.16402L28.0283 15.1564C28.1529 15.2812 28.2409 15.4129 28.2923 15.5514C28.3436 15.6898 28.3693 15.8394 28.3693 16C28.3693 16.1607 28.3436 16.3102 28.2923 16.4487C28.2409 16.5871 28.1529 16.7188 28.0283 16.8437L22.0359 22.836C21.8375 23.0342 21.6054 23.132 21.3396 23.1294C21.0738 23.1269 20.8375 23.0222 20.6306 22.8154C20.4239 22.6085 20.3206 22.3709 20.3206 22.1027C20.3206 21.8342 20.4239 21.5966 20.6306 21.3897L26.0409 15.9794Z" fill="#1C1B1F"/>
</g>
</svg>
