<svg width="222" height="32" viewBox="0 0 222 32" fill="none" xmlns="http://www.w3.org/2000/svg">
<path d="M12.912 18.92C11.9307 18.92 11.0987 18.6747 10.416 18.184C9.75467 17.6933 9.424 16.904 9.424 15.816C9.424 15.112 9.616 14.5253 10 14.056C10.384 13.5867 10.96 13.224 11.728 12.968C12.496 12.6907 13.4453 12.5307 14.576 12.488L16.112 12.424V11.976C16.112 11.2507 15.952 10.7173 15.632 10.376C15.312 10.0133 14.8427 9.832 14.224 9.832C13.8187 9.832 13.36 9.90667 12.848 10.056C12.3573 10.184 11.792 10.3973 11.152 10.696L10.576 9.192C11.1947 8.89333 11.8027 8.66933 12.4 8.52C13.0187 8.34933 13.6587 8.264 14.32 8.264C15.6427 8.264 16.624 8.54133 17.264 9.096C17.904 9.65067 18.224 10.536 18.224 11.752V18.76H16.592L16.176 16.392L16.624 16.648C16.112 17.3733 15.5787 17.9387 15.024 18.344C14.4907 18.728 13.7867 18.92 12.912 18.92ZM13.264 17.352C13.8187 17.352 14.3093 17.256 14.736 17.064C15.1627 16.872 15.4933 16.5733 15.728 16.168C15.984 15.7413 16.112 15.2187 16.112 14.6V13.8L14.8 13.864C13.5627 13.928 12.7093 14.12 12.24 14.44C11.792 14.76 11.568 15.2293 11.568 15.848C11.568 16.3387 11.728 16.712 12.048 16.968C12.368 17.224 12.7733 17.352 13.264 17.352ZM14 26.76C12.1867 26.76 10.48 26.4187 8.88 25.736C7.28 25.0533 5.872 24.1147 4.656 22.92C3.46133 21.704 2.52267 20.296 1.84 18.696C1.15733 17.096 0.816 15.3893 0.816 13.576C0.816 11.7413 1.15733 10.0347 1.84 8.456C2.52267 6.856 3.46133 5.45867 4.656 4.264C5.872 3.048 7.28 2.09867 8.88 1.416C10.48 0.733332 12.1867 0.391998 14 0.391998C15.8347 0.391998 17.5413 0.733332 19.12 1.416C20.72 2.09867 22.1173 3.048 23.312 4.264C24.528 5.45867 25.4773 6.856 26.16 8.456C26.8427 10.0347 27.184 11.7413 27.184 13.576C27.184 15.3893 26.8427 17.096 26.16 18.696C25.4773 20.296 24.528 21.704 23.312 22.92C22.1173 24.1147 20.72 25.0533 19.12 25.736C17.5413 26.4187 15.8347 26.76 14 26.76ZM14 24.968C15.5787 24.968 17.0507 24.68 18.416 24.104C19.8027 23.5067 21.0187 22.6853 22.064 21.64C23.1093 20.5947 23.92 19.3893 24.496 18.024C25.0933 16.6373 25.392 15.1547 25.392 13.576C25.392 11.9973 25.0933 10.5253 24.496 9.16C23.92 7.77333 23.1093 6.55733 22.064 5.512C21.0187 4.46667 19.8027 3.656 18.416 3.08C17.0507 2.48266 15.5787 2.184 14 2.184C12.4213 2.184 10.9387 2.48266 9.552 3.08C8.18667 3.656 6.98133 4.46667 5.936 5.512C4.89067 6.55733 4.06933 7.77333 3.472 9.16C2.896 10.5253 2.608 11.9973 2.608 13.576C2.608 15.1547 2.896 16.6373 3.472 18.024C4.06933 19.3893 4.89067 20.5947 5.936 21.64C6.98133 22.6853 8.18667 23.5067 9.552 24.104C10.9387 24.68 12.4213 24.968 14 24.968ZM35.1364 14.5V25H32.4545V7.54545H35.0455V10.2727H35.2727C35.6818 9.38636 36.303 8.67424 37.1364 8.13636C37.9697 7.59091 39.0455 7.31818 40.3636 7.31818C41.5455 7.31818 42.5795 7.56061 43.4659 8.04545C44.3523 8.52273 45.0417 9.25 45.5341 10.2273C46.0265 11.197 46.2727 12.4242 46.2727 13.9091V25H43.5909V14.0909C43.5909 12.7197 43.2348 11.6515 42.5227 10.8864C41.8106 10.1136 40.8333 9.72727 39.5909 9.72727C38.7348 9.72727 37.9697 9.91288 37.2955 10.2841C36.6288 10.6553 36.1023 11.197 35.7159 11.9091C35.3295 12.6212 35.1364 13.4848 35.1364 14.5ZM62.1733 17.8636V7.54545H64.8551V25H62.1733V22.0455H61.9915C61.5824 22.9318 60.946 23.6856 60.0824 24.3068C59.2188 24.9205 58.1278 25.2273 56.8097 25.2273C55.7188 25.2273 54.7491 24.9886 53.9006 24.5114C53.0521 24.0265 52.3854 23.2992 51.9006 22.3295C51.4157 21.3523 51.1733 20.1212 51.1733 18.6364V7.54545H53.8551V18.4545C53.8551 19.7273 54.2112 20.7424 54.9233 21.5C55.643 22.2576 56.5597 22.6364 57.6733 22.6364C58.34 22.6364 59.018 22.4659 59.7074 22.125C60.4044 21.7841 60.9877 21.2614 61.4574 20.5568C61.9347 19.8523 62.1733 18.9545 62.1733 17.8636ZM76.8125 31.9091C75.517 31.9091 74.4034 31.7424 73.4716 31.4091C72.5398 31.0833 71.7633 30.6515 71.142 30.1136C70.5284 29.5833 70.0398 29.0152 69.6761 28.4091L71.8125 26.9091C72.0549 27.2273 72.3617 27.5909 72.733 28C73.1042 28.4167 73.6117 28.7765 74.2557 29.0795C74.9072 29.3902 75.7595 29.5455 76.8125 29.5455C78.2216 29.5455 79.3845 29.2045 80.3011 28.5227C81.2178 27.8409 81.6761 26.7727 81.6761 25.3182V21.7727H81.4489C81.2519 22.0909 80.9716 22.4848 80.608 22.9545C80.2519 23.4167 79.7367 23.8295 79.0625 24.1932C78.3958 24.5492 77.4943 24.7273 76.358 24.7273C74.9489 24.7273 73.6837 24.3939 72.5625 23.7273C71.4489 23.0606 70.5663 22.0909 69.9148 20.8182C69.2708 19.5455 68.9489 18 68.9489 16.1818C68.9489 14.3939 69.2633 12.8371 69.892 11.5114C70.5208 10.178 71.3958 9.14773 72.517 8.42045C73.6383 7.68561 74.9337 7.31818 76.4034 7.31818C77.5398 7.31818 78.4413 7.50758 79.108 7.88636C79.7822 8.25758 80.2973 8.68182 80.6534 9.15909C81.017 9.62879 81.2973 10.0152 81.4943 10.3182H81.767V7.54545H84.358V25.5C84.358 27 84.017 28.2197 83.3352 29.1591C82.661 30.1061 81.7519 30.7992 80.608 31.2386C79.4716 31.6856 78.2064 31.9091 76.8125 31.9091ZM76.7216 22.3182C77.7973 22.3182 78.7064 22.072 79.4489 21.5795C80.1913 21.0871 80.7557 20.3788 81.142 19.4545C81.5284 18.5303 81.7216 17.4242 81.7216 16.1364C81.7216 14.8788 81.5322 13.7689 81.1534 12.8068C80.7746 11.8447 80.214 11.0909 79.4716 10.5455C78.7292 10 77.8125 9.72727 76.7216 9.72727C75.5852 9.72727 74.6383 10.0152 73.8807 10.5909C73.1307 11.1667 72.5663 11.9394 72.1875 12.9091C71.8163 13.8788 71.6307 14.9545 71.6307 16.1364C71.6307 17.3485 71.8201 18.4205 72.1989 19.3523C72.5852 20.2765 73.1534 21.0038 73.9034 21.5341C74.661 22.0568 75.6004 22.3182 76.7216 22.3182ZM96.5852 25.3636C94.9034 25.3636 93.4527 24.9924 92.233 24.25C91.0208 23.5 90.0852 22.4545 89.4261 21.1136C88.7746 19.7652 88.4489 18.197 88.4489 16.4091C88.4489 14.6212 88.7746 13.0455 89.4261 11.6818C90.0852 10.3106 91.0019 9.24242 92.1761 8.47727C93.358 7.70455 94.7367 7.31818 96.3125 7.31818C97.2216 7.31818 98.1193 7.4697 99.0057 7.77273C99.892 8.07576 100.699 8.56818 101.426 9.25C102.153 9.92424 102.733 10.8182 103.165 11.9318C103.597 13.0455 103.812 14.4167 103.812 16.0455V17.1818H90.358V14.8636H101.085C101.085 13.8788 100.888 13 100.494 12.2273C100.108 11.4545 99.5549 10.8447 98.8352 10.3977C98.1231 9.95076 97.2822 9.72727 96.3125 9.72727C95.2443 9.72727 94.3201 9.99242 93.5398 10.5227C92.767 11.0455 92.1723 11.7273 91.7557 12.5682C91.339 13.4091 91.1307 14.3106 91.1307 15.2727V16.8182C91.1307 18.1364 91.358 19.2538 91.8125 20.1705C92.2746 21.0795 92.9148 21.7727 93.733 22.25C94.5511 22.7197 95.5019 22.9545 96.5852 22.9545C97.2898 22.9545 97.9261 22.8561 98.4943 22.6591C99.0701 22.4545 99.5663 22.1515 99.983 21.75C100.4 21.3409 100.722 20.8333 100.949 20.2273L103.54 20.9545C103.267 21.8333 102.809 22.6061 102.165 23.2727C101.521 23.9318 100.725 24.447 99.7784 24.8182C98.8314 25.1818 97.767 25.3636 96.5852 25.3636ZM107.892 25V7.54545H110.483V10.1818H110.665C110.983 9.31818 111.559 8.61742 112.392 8.07954C113.225 7.54167 114.165 7.27273 115.21 7.27273C115.407 7.27273 115.653 7.27651 115.949 7.28409C116.244 7.29167 116.468 7.30303 116.619 7.31818V10.0455C116.528 10.0227 116.32 9.98864 115.994 9.94318C115.676 9.89015 115.339 9.86364 114.983 9.86364C114.134 9.86364 113.377 10.0417 112.71 10.3977C112.051 10.7462 111.528 11.2311 111.142 11.8523C110.763 12.4659 110.574 13.1667 110.574 13.9545V25H107.892ZM124.935 25.4091C123.829 25.4091 122.825 25.2008 121.923 24.7841C121.022 24.3598 120.306 23.75 119.776 22.9545C119.245 22.1515 118.98 21.1818 118.98 20.0455C118.98 19.0455 119.177 18.2348 119.571 17.6136C119.965 16.9848 120.491 16.4924 121.151 16.1364C121.81 15.7803 122.537 15.5152 123.332 15.3409C124.135 15.1591 124.942 15.0152 125.753 14.9091C126.813 14.7727 127.673 14.6705 128.332 14.6023C128.999 14.5265 129.484 14.4015 129.787 14.2273C130.098 14.053 130.253 13.75 130.253 13.3182V13.2273C130.253 12.1061 129.946 11.2348 129.332 10.6136C128.726 9.99242 127.806 9.68182 126.571 9.68182C125.291 9.68182 124.287 9.96212 123.56 10.5227C122.832 11.0833 122.321 11.6818 122.026 12.3182L119.48 11.4091C119.935 10.3485 120.541 9.52273 121.298 8.93182C122.063 8.33333 122.897 7.91667 123.798 7.68182C124.707 7.43939 125.601 7.31818 126.48 7.31818C127.041 7.31818 127.685 7.38636 128.412 7.52273C129.147 7.65151 129.855 7.92045 130.537 8.32954C131.226 8.73864 131.798 9.35606 132.253 10.1818C132.707 11.0076 132.935 12.1136 132.935 13.5V25H130.253V22.6364H130.116C129.935 23.0152 129.632 23.4205 129.207 23.8523C128.783 24.2841 128.219 24.6515 127.514 24.9545C126.81 25.2576 125.95 25.4091 124.935 25.4091ZM125.344 23C126.404 23 127.298 22.7917 128.026 22.375C128.76 21.9583 129.313 21.4205 129.685 20.7614C130.063 20.1023 130.253 19.4091 130.253 18.6818V16.2273C130.139 16.3636 129.889 16.4886 129.503 16.6023C129.124 16.7083 128.685 16.803 128.185 16.8864C127.692 16.9621 127.211 17.0303 126.741 17.0909C126.279 17.1439 125.904 17.1894 125.616 17.2273C124.92 17.3182 124.268 17.4659 123.662 17.6705C123.063 17.8674 122.579 18.1667 122.207 18.5682C121.844 18.9621 121.662 19.5 121.662 20.1818C121.662 21.1136 122.007 21.8182 122.696 22.2955C123.393 22.7652 124.276 23 125.344 23ZM140.511 14.5V25H137.83V1.72727H140.511V10.2727H140.739C141.148 9.37121 141.761 8.6553 142.58 8.125C143.405 7.58712 144.504 7.31818 145.875 7.31818C147.064 7.31818 148.106 7.55682 149 8.03409C149.894 8.50379 150.587 9.22727 151.08 10.2045C151.58 11.1742 151.83 12.4091 151.83 13.9091V25H149.148V14.0909C149.148 12.7045 148.788 11.6326 148.068 10.875C147.356 10.1098 146.367 9.72727 145.102 9.72727C144.223 9.72727 143.436 9.91288 142.739 10.2841C142.049 10.6553 141.504 11.197 141.102 11.9091C140.708 12.6212 140.511 13.4848 140.511 14.5ZM170.889 20.648C171.7 20.648 172.511 20.584 173.321 20.456C174.132 20.328 174.943 20.1467 175.753 19.912V12.936H170.409V14.728H173.545V18.664C173.204 18.7493 172.82 18.8133 172.393 18.856C171.967 18.8987 171.487 18.92 170.953 18.92C169.268 18.92 167.999 18.4613 167.145 17.544C166.292 16.6267 165.865 15.2507 165.865 13.416C165.865 11.752 166.303 10.44 167.177 9.48C168.073 8.49867 169.353 8.008 171.017 8.008C171.593 8.008 172.201 8.08267 172.841 8.232C173.481 8.36 174.132 8.57333 174.793 8.872L175.561 7.112C174.9 6.83467 174.185 6.632 173.417 6.504C172.671 6.35467 171.892 6.28 171.081 6.28C168.692 6.28 166.836 6.92 165.513 8.2C164.191 9.48 163.529 11.2187 163.529 13.416C163.529 14.9093 163.796 16.2 164.329 17.288C164.884 18.3547 165.705 19.1867 166.793 19.784C167.903 20.36 169.268 20.648 170.889 20.648ZM170.281 26.76C168.468 26.76 166.761 26.4187 165.161 25.736C163.561 25.0533 162.153 24.1147 160.937 22.92C159.743 21.704 158.804 20.296 158.121 18.696C157.439 17.096 157.097 15.3893 157.097 13.576C157.097 11.7627 157.439 10.0667 158.121 8.488C158.804 6.888 159.743 5.48 160.937 4.264C162.153 3.048 163.561 2.09867 165.161 1.416C166.761 0.733332 168.468 0.391998 170.281 0.391998C172.116 0.391998 173.823 0.733332 175.401 1.416C177.001 2.09867 178.399 3.048 179.593 4.264C180.809 5.48 181.759 6.888 182.441 8.488C183.124 10.0667 183.465 11.7627 183.465 13.576C183.465 15.3893 183.124 17.096 182.441 18.696C181.759 20.296 180.809 21.704 179.593 22.92C178.399 24.1147 177.001 25.0533 175.401 25.736C173.823 26.4187 172.116 26.76 170.281 26.76ZM193.872 25.4091C192.766 25.4091 191.762 25.2008 190.861 24.7841C189.959 24.3598 189.243 23.75 188.713 22.9545C188.183 22.1515 187.918 21.1818 187.918 20.0455C187.918 19.0455 188.115 18.2348 188.509 17.6136C188.902 16.9848 189.429 16.4924 190.088 16.1364C190.747 15.7803 191.474 15.5152 192.27 15.3409C193.073 15.1591 193.88 15.0152 194.69 14.9091C195.751 14.7727 196.611 14.6705 197.27 14.6023C197.937 14.5265 198.421 14.4015 198.724 14.2273C199.035 14.053 199.19 13.75 199.19 13.3182V13.2273C199.19 12.1061 198.884 11.2348 198.27 10.6136C197.664 9.99242 196.743 9.68182 195.509 9.68182C194.228 9.68182 193.224 9.96212 192.497 10.5227C191.77 11.0833 191.259 11.6818 190.963 12.3182L188.418 11.4091C188.872 10.3485 189.478 9.52273 190.236 8.93182C191.001 8.33333 191.834 7.91667 192.736 7.68182C193.645 7.43939 194.539 7.31818 195.418 7.31818C195.978 7.31818 196.622 7.38636 197.349 7.52273C198.084 7.65151 198.793 7.92045 199.474 8.32954C200.164 8.73864 200.736 9.35606 201.19 10.1818C201.645 11.0076 201.872 12.1136 201.872 13.5V25H199.19V22.6364H199.054C198.872 23.0152 198.569 23.4205 198.145 23.8523C197.721 24.2841 197.156 24.6515 196.452 24.9545C195.747 25.2576 194.887 25.4091 193.872 25.4091ZM194.281 23C195.342 23 196.236 22.7917 196.963 22.375C197.698 21.9583 198.251 21.4205 198.622 20.7614C199.001 20.1023 199.19 19.4091 199.19 18.6818V16.2273C199.077 16.3636 198.827 16.4886 198.44 16.6023C198.062 16.7083 197.622 16.803 197.122 16.8864C196.63 16.9621 196.149 17.0303 195.679 17.0909C195.217 17.1439 194.842 17.1894 194.554 17.2273C193.857 17.3182 193.205 17.4659 192.599 17.6705C192.001 17.8674 191.516 18.1667 191.145 18.5682C190.781 18.9621 190.599 19.5 190.599 20.1818C190.599 21.1136 190.944 21.8182 191.634 22.2955C192.33 22.7652 193.213 23 194.281 23ZM206.767 25V7.54545H209.358V10.1818H209.54C209.858 9.31818 210.434 8.61742 211.267 8.07954C212.1 7.54167 213.04 7.27273 214.085 7.27273C214.282 7.27273 214.528 7.27651 214.824 7.28409C215.119 7.29167 215.343 7.30303 215.494 7.31818V10.0455C215.403 10.0227 215.195 9.98864 214.869 9.94318C214.551 9.89015 214.214 9.86364 213.858 9.86364C213.009 9.86364 212.252 10.0417 211.585 10.3977C210.926 10.7462 210.403 11.2311 210.017 11.8523C209.638 12.4659 209.449 13.1667 209.449 13.9545V25H206.767ZM218.673 25V7.54545H221.355V25H218.673ZM220.037 4.63636C219.514 4.63636 219.063 4.45833 218.685 4.10227C218.313 3.74621 218.128 3.31818 218.128 2.81818C218.128 2.31818 218.313 1.89015 218.685 1.53409C219.063 1.17803 219.514 1 220.037 1C220.56 1 221.007 1.17803 221.378 1.53409C221.757 1.89015 221.946 2.31818 221.946 2.81818C221.946 3.31818 221.757 3.74621 221.378 4.10227C221.007 4.45833 220.56 4.63636 220.037 4.63636Z" fill="black"/>
</svg>
