<svg width="32" height="32" viewBox="0 0 32 32" fill="none" xmlns="http://www.w3.org/2000/svg">
<mask id="mask0_64_80" style="mask-type:alpha" maskUnits="userSpaceOnUse" x="0" y="0" width="32" height="32">
<rect width="32" height="32" fill="#D9D9D9"/>
</mask>
<g mask="url(#mask0_64_80)">
<path d="M15.9743 28.6667C14.246 28.6667 12.6136 28.3338 11.0769 27.668C9.54003 27.0023 8.19814 26.0958 7.05125 24.9487C5.90414 23.8018 4.9977 22.4578 4.33192 20.9167C3.66614 19.3756 3.33325 17.7367 3.33325 16C3.33325 14.2412 3.67514 12.5912 4.35892 11.05C5.0427 9.50893 5.97136 8.16837 7.14492 7.02837C8.31825 5.88815 9.69092 4.98726 11.2629 4.32571C12.8347 3.66415 14.5111 3.33337 16.2923 3.33337C17.9589 3.33337 19.5384 3.6176 21.0306 4.18604C22.523 4.75449 23.8337 5.54126 24.9626 6.54637C26.0917 7.55149 26.9913 8.74593 27.6613 10.1297C28.3315 11.5133 28.6666 13.0136 28.6666 14.6307C28.6666 16.9385 27.9807 18.7436 26.6089 20.046C25.2371 21.3487 23.4786 22 21.3333 22H18.9179C18.5384 22 18.2349 22.1239 18.0076 22.3717C17.7803 22.6197 17.6666 22.9129 17.6666 23.2514C17.6666 23.6634 17.8333 24.0916 18.1666 24.536C18.4999 24.9805 18.6666 25.4907 18.6666 26.0667C18.6666 26.9469 18.423 27.6004 17.9359 28.027C17.4486 28.4535 16.7947 28.6667 15.9743 28.6667ZM8.66658 17C9.1417 17 9.53825 16.841 9.85625 16.523C10.1743 16.205 10.3333 15.8085 10.3333 15.3334C10.3333 14.8583 10.1743 14.4617 9.85625 14.1437C9.53825 13.8257 9.1417 13.6667 8.66658 13.6667C8.19147 13.6667 7.79492 13.8257 7.47692 14.1437C7.15892 14.4617 6.99992 14.8583 6.99992 15.3334C6.99992 15.8085 7.15892 16.205 7.47692 16.523C7.79492 16.841 8.19147 17 8.66658 17ZM12.6666 11.6667C13.1417 11.6667 13.5383 11.5077 13.8563 11.1897C14.1743 10.8717 14.3333 10.4752 14.3333 10C14.3333 9.52493 14.1743 9.12837 13.8563 8.81037C13.5383 8.49237 13.1417 8.33337 12.6666 8.33337C12.1915 8.33337 11.7949 8.49237 11.4769 8.81037C11.1589 9.12837 10.9999 9.52493 10.9999 10C10.9999 10.4752 11.1589 10.8717 11.4769 11.1897C11.7949 11.5077 12.1915 11.6667 12.6666 11.6667ZM19.3333 11.6667C19.8084 11.6667 20.2049 11.5077 20.5229 11.1897C20.8409 10.8717 20.9999 10.4752 20.9999 10C20.9999 9.52493 20.8409 9.12837 20.5229 8.81037C20.2049 8.49237 19.8084 8.33337 19.3333 8.33337C18.8581 8.33337 18.4616 8.49237 18.1436 8.81037C17.8256 9.12837 17.6666 9.52493 17.6666 10C17.6666 10.4752 17.8256 10.8717 18.1436 11.1897C18.4616 11.5077 18.8581 11.6667 19.3333 11.6667ZM23.3333 17C23.8084 17 24.2049 16.841 24.5229 16.523C24.8409 16.205 24.9999 15.8085 24.9999 15.3334C24.9999 14.8583 24.8409 14.4617 24.5229 14.1437C24.2049 13.8257 23.8084 13.6667 23.3333 13.6667C22.8581 13.6667 22.4616 13.8257 22.1436 14.1437C21.8256 14.4617 21.6666 14.8583 21.6666 15.3334C21.6666 15.8085 21.8256 16.205 22.1436 16.523C22.4616 16.841 22.8581 17 23.3333 17ZM15.9743 26.6667C16.1914 26.6667 16.361 26.6133 16.4833 26.5064C16.6055 26.3995 16.6666 26.2529 16.6666 26.0667C16.6666 25.7556 16.4999 25.406 16.1666 25.018C15.8333 24.63 15.6666 24.0224 15.6666 23.195C15.6666 22.2446 15.9888 21.4745 16.6333 20.8847C17.2777 20.2949 18.0666 20 18.9999 20H21.3333C22.9026 20 24.1838 19.5403 25.1769 18.6207C26.17 17.7009 26.6666 16.3709 26.6666 14.6307C26.6666 11.9334 25.6324 9.70949 23.5639 7.95904C21.4957 6.2086 19.0718 5.33337 16.2923 5.33337C13.2445 5.33337 10.656 6.36671 8.52692 8.43337C6.39781 10.5 5.33325 13.0223 5.33325 16C5.33325 18.9556 6.37214 21.4723 8.44992 23.55C10.5277 25.6278 13.0358 26.6667 15.9743 26.6667Z" fill="#1C1B1F"/>
</g>
</svg>
