<svg width="24" height="24" viewBox="0 0 24 24" fill="none" xmlns="http://www.w3.org/2000/svg">
<path d="M7.26953 3H8.33203L9.01703 5.748H9.08353L9.73753 3.0015H10.811L9.58203 7.0195V10H8.52603V7.1485L7.26953 3ZM10.7625 5.9615C10.7625 5.5695 10.8895 5.256 11.142 5.0245C11.394 4.7915 11.733 4.6745 12.1595 4.6745C12.5485 4.6745 12.866 4.797 13.1135 5.043C13.361 5.287 13.485 5.6035 13.485 5.99V8.6075C13.485 9.0405 13.364 9.3815 13.121 9.6295C12.878 9.8765 12.545 10 12.1175 10C11.706 10 11.379 9.8705 11.1305 9.6165C10.884 9.3625 10.7615 9.0195 10.7615 8.589V5.961H10.7625V5.9615ZM11.7275 8.684C11.7275 8.8215 11.7605 8.931 11.83 9.007C11.896 9.082 11.991 9.12 12.1155 9.12C12.243 9.12 12.3425 9.0815 12.4175 9.003C12.492 8.9275 12.5305 8.82 12.5305 8.684V5.923C12.5305 5.813 12.491 5.7235 12.415 5.655C12.3395 5.5875 12.239 5.5525 12.1155 5.5525C12.001 5.5525 11.907 5.5875 11.835 5.655C11.7635 5.7235 11.7275 5.813 11.7275 5.923V8.684ZM16.959 4.8025V10H16.0215V9.367C15.8485 9.574 15.669 9.731 15.481 9.8375C15.295 9.945 15.1135 10 14.938 10C14.7205 10 14.558 9.9255 14.4475 9.774C14.337 9.624 14.283 9.3985 14.283 9.0955V4.8025H15.22V8.7455C15.22 8.8635 15.24 8.9505 15.28 9.005C15.3175 9.057 15.3835 9.086 15.47 9.086C15.5405 9.086 15.6275 9.0505 15.731 8.9785C15.8375 8.908 15.934 8.8165 16.0215 8.7065V4.8025H16.959Z" fill="#455A64"/>
<path d="M19.3994 13.2195C19.3994 12.0485 18.4294 11.0995 17.2349 11.0995C15.5289 11.028 13.7824 10.998 11.9999 11.0005C10.2184 10.998 8.47189 11.0285 6.76489 11.0995C5.57139 11.0995 4.60139 12.0485 4.60139 13.2195C4.53039 14.1455 4.49739 15.0725 4.49989 16.0005C4.49739 16.927 4.52989 17.854 4.60189 18.781C4.60189 19.9535 5.57089 20.9025 6.76489 20.9025C8.47189 20.9725 10.2184 21.0025 11.9999 21C13.7819 21.004 15.5289 20.972 17.2349 20.9025C18.4294 20.9025 19.3994 19.9535 19.3994 18.781C19.4704 17.854 19.5039 16.927 19.4999 16.0005C19.5039 15.0725 19.4704 14.1455 19.3994 13.2195Z" fill="white"/>
<path d="M16.9255 15.173C16.816 15.173 16.7415 15.202 16.6965 15.263C16.6645 15.3085 16.624 15.4125 16.624 15.639V16.026H17.2205V15.639C17.2205 15.416 17.179 15.3115 17.145 15.2605C17.1025 15.201 17.0305 15.173 16.9255 15.173ZM13.4325 15.193C13.3895 15.214 13.3475 15.2455 13.3035 15.2895V18.2275C13.3585 18.283 13.412 18.323 13.4615 18.3485C13.517 18.376 13.5735 18.3885 13.6345 18.3885C13.75 18.3885 13.786 18.343 13.7975 18.327C13.826 18.2915 13.857 18.2175 13.857 18.057V15.5545C13.857 15.4155 13.8305 15.308 13.781 15.242C13.714 15.153 13.582 15.118 13.4325 15.193Z" fill="#F44336"/>
<path d="M19.3994 13.2195C19.3994 12.0485 18.4294 11.0995 17.2349 11.0995C15.5289 11.028 13.7824 10.998 11.9999 11.0005C10.2184 10.998 8.47189 11.0285 6.76489 11.0995C5.57139 11.0995 4.60139 12.0485 4.60139 13.2195C4.53039 14.1455 4.49739 15.0725 4.49989 16.0005C4.49739 16.927 4.52989 17.854 4.60189 18.781C4.60189 19.9535 5.57089 20.9025 6.76489 20.9025C8.47189 20.9725 10.2184 21.0025 11.9999 21C13.7819 21.004 15.5289 20.972 17.2349 20.9025C18.4294 20.9025 19.3994 19.9535 19.3994 18.781C19.4704 17.854 19.5039 16.927 19.4999 16.0005C19.5039 15.0725 19.4704 14.1455 19.3994 13.2195ZM7.85039 19.191C7.85039 19.2465 7.80439 19.293 7.74739 19.293H6.72289C6.66589 19.293 6.61989 19.2465 6.61989 19.191V13.676H5.66289C5.60639 13.676 5.56039 13.63 5.56039 13.5745V12.6225C5.56039 12.5665 5.60639 12.5205 5.66289 12.5205H8.80839C8.86539 12.5205 8.91139 12.5665 8.91139 12.6225V13.5745C8.91139 13.63 8.86589 13.676 8.80839 13.676H7.85039V19.191ZM11.4974 19.191C11.4974 19.2465 11.4514 19.293 11.3944 19.293H10.4834C10.4264 19.293 10.3804 19.2465 10.3804 19.191V18.9155C10.2589 19.032 10.1374 19.1245 10.0114 19.1955C9.81289 19.309 9.62339 19.3635 9.43139 19.3635C9.18739 19.3635 8.99939 19.2755 8.87289 19.105C8.75389 18.943 8.69239 18.7035 8.69239 18.3945V14.3445C8.69239 14.2885 8.73839 14.2425 8.79589 14.2425H9.70639C9.76339 14.2425 9.80939 14.2885 9.80939 14.3445V18.0585C9.80939 18.1805 9.83139 18.23 9.84539 18.2495C9.85189 18.258 9.87039 18.283 9.94789 18.283C9.97389 18.283 10.0339 18.272 10.1424 18.1985C10.2304 18.141 10.3094 18.069 10.3789 17.986V14.3445C10.3789 14.2885 10.4249 14.2425 10.4824 14.2425H11.3929C11.4499 14.2425 11.4959 14.2885 11.4959 14.3445V19.1905L11.4974 19.191ZM14.9999 18.1865C14.9999 18.5545 14.9204 18.8415 14.7634 19.0405C14.6004 19.2495 14.3649 19.3535 14.0644 19.3535C13.8729 19.3535 13.6979 19.315 13.5414 19.237C13.4584 19.1955 13.3779 19.1415 13.3019 19.0745V19.191C13.3019 19.248 13.2554 19.293 13.1989 19.293H12.2804C12.2234 19.293 12.1769 19.248 12.1769 19.191V12.621C12.1769 12.565 12.2229 12.5195 12.2804 12.5195H13.1989C13.2554 12.5195 13.3019 12.565 13.3019 12.621V14.4795C13.3769 14.4115 13.4569 14.3545 13.5389 14.308C13.6934 14.223 13.8514 14.18 14.0094 14.18C14.3299 14.18 14.5809 14.299 14.7514 14.533C14.9154 14.758 14.9989 15.0835 14.9989 15.4995L14.9999 18.1865ZM18.3644 16.8825C18.3644 16.939 18.3179 16.985 18.2609 16.985H16.6244V17.7955C16.6244 18.0915 16.6654 18.218 16.6984 18.271C16.7249 18.315 16.7744 18.3705 16.9174 18.3705C17.0324 18.3705 17.1114 18.343 17.1519 18.2885C17.1704 18.2595 17.2214 18.1485 17.2214 17.7945V17.457C17.2214 17.4 17.2679 17.355 17.3249 17.355H18.2609C18.3179 17.355 18.3634 17.4 18.3634 17.457V17.8215C18.3634 18.3435 18.2389 18.7435 17.9949 19.0135C17.7499 19.285 17.3799 19.4235 16.8959 19.4235C16.4599 19.4235 16.1089 19.2755 15.8564 18.988C15.6064 18.7025 15.4789 18.311 15.4789 17.8215V15.6455C15.4789 15.1995 15.6179 14.8305 15.8939 14.5475C16.1689 14.2635 16.5309 14.119 16.9659 14.119C17.4109 14.119 17.7594 14.2545 18.0019 14.5205C18.2419 14.7835 18.3639 15.1625 18.3639 15.646V16.883L18.3644 16.8825Z" fill="#F44336"/>
</svg>
